<?xml version="1.0" encoding="utf-8"?>
<!-- Generator: Adobe Illustrator 19.1.0, SVG Export Plug-In . SVG Version: 6.00 Build 0)  -->
<svg version="1.1" id="Layer_1" xmlns="http://www.w3.org/2000/svg" xmlns:xlink="http://www.w3.org/1999/xlink" x="0px" y="0px"
	 viewBox="0 0 740 315" style="enable-background:new 0 0 740 315;" xml:space="preserve">
<style type="text/css">
	.st0{opacity:0.1;fill:url(#SVGID_1_);}
	.st1{opacity:0.1;}
</style>
<linearGradient id="SVGID_1_" gradientUnits="userSpaceOnUse" x1="370" y1="233.4866" x2="370" y2="115.7041">
	<stop  offset="0" style="stop-color:#000000;stop-opacity:0"/>
	<stop  offset="1" style="stop-color:#000000;stop-opacity:0.3"/>
</linearGradient>
<path class="st0" d="M659.4,172.2c0.2,1,0.4,2.1,0.4,3.2c0,7.9-6.4,14.3-14.3,14.3c-7.9,0-14.3-6.4-14.3-14.3c0-2.4,0.6-4.6,1.6-6.6
	L548,100.1c-2.5,2.3-5.9,3.7-9.5,3.7c-6,0-11.2-3.7-13.3-9l-80.5,26.5c0,0.4,0.1,0.8,0.1,1.2c0,7.9-6.4,14.3-14.3,14.3
	c-7.5,0-13.6-5.8-14.3-13.1l-79.6-11.8c-2.3,5-7.2,8.4-13,8.4c-7.9,0-14.3-6.4-14.3-14.3c0-1.6,0.3-3.1,0.7-4.5l-83.6-57.8
	c-2.6,2.3-5.9,3.8-9.7,3.8c-2.5,0-4.9-0.7-7-1.8l-89.5,108.9c2.1,2.5,3.4,5.7,3.4,9.2c0,7.9-6.4,14.3-14.3,14.3s-14.3-6.4-14.3-14.3
	c0-1,0.1-2,0.3-3l-83.6-32.6c-2.6,3.5-6.8,5.9-11.5,5.9V316h740V134.1c-4.1,0-7.2-1.6-9.8-4.3L659.4,172.2z"/>
<path class="st1" d="M740,112.1v-6.6c-8.1,0-13.9,6.4-13.9,14.3c0,1.5,0.4,3,0.9,4.4l-70.6,42.1c-2.6-3.2-6.5-5.2-11-5.2
	c-3.1,0-6,1-8.4,2.7l-85.2-69.1c0.6-1.6,1-3.4,1-5.2c0-7.9-6.4-14.3-14.3-14.3c-7.5,0-13.6,5.7-14.3,13L442.7,115
	c-2.5-4.1-7-6.8-12.2-6.8c-6,0-11.2,3.7-13.3,9l-79.3-11.8c-0.3-7.6-6.6-13.7-14.3-13.7c-4,0-7.6,1.6-10.2,4.2L230,38.3
	c0.6-1.6,0.9-3.3,0.9-5.1c0-7.9-6.4-14.3-14.3-14.3s-14.3,6.4-14.3,14.3c0,3,0.9,5.7,2.5,8l-90,109.4c-1.7-0.7-3.6-1.2-5.6-1.2
	c-4.5,0-8.5,2.1-11.1,5.3l-83.9-32.7c0.1-0.8,0.2-1.6,0.2-2.4c0-7.9-6.4-14.3-14.3-14.3v6.6c4.3,0,7.7,3.5,7.7,7.7
	c0,4.3-3.5,7.7-7.7,7.7v6.6c4.7,0,8.9-2.3,11.5-5.9l83.6,32.6c-0.2,1-0.3,2-0.3,3c0,7.9,6.4,14.3,14.3,14.3s14.3-6.4,14.3-14.3
	c0-3.5-1.3-6.7-3.4-9.2l89.5-108.9c2.1,1.2,4.5,1.8,7,1.8c3.7,0,7.1-1.4,9.7-3.8l83.6,57.8c-0.5,1.4-0.7,2.9-0.7,4.5
	c0,7.9,6.4,14.3,14.3,14.3c5.8,0,10.8-3.5,13-8.4l79.6,11.8c0.6,7.3,6.8,13.1,14.3,13.1c7.9,0,14.3-6.4,14.3-14.3
	c0-0.4,0-0.8-0.1-1.2l80.5-26.5c2.1,5.3,7.3,9,13.3,9c3.7,0,7-1.4,9.5-3.7l84.7,68.7c-1,2-1.6,4.2-1.6,6.6c0,7.9,6.4,14.3,14.3,14.3
	c7.9,0,14.3-6.4,14.3-14.3c0-1.1-0.1-2.2-0.4-3.2l70.8-42.4c2.6,2.6,5.8,4.3,9.8,4.3v-6.6c-4.1,0-7.7-3.5-7.7-7.7
	C732.3,115.5,735.9,112.1,740,112.1z M109.1,171.6c-4.3,0-7.7-3.5-7.7-7.7c0-4.3,3.5-7.7,7.7-7.7c4.3,0,7.7,3.5,7.7,7.7
	C116.8,168.1,113.4,171.6,109.1,171.6z M216.6,41c-4.3,0-7.7-3.5-7.7-7.7c0-4.3,3.5-7.7,7.7-7.7c4.3,0,7.7,3.5,7.7,7.7
	C224.3,37.5,220.9,41,216.6,41z M323.5,113.7c-4.3,0-7.7-3.5-7.7-7.7c0-4.3,3.5-7.7,7.7-7.7c4.3,0,7.7,3.5,7.7,7.7
	C331.3,110.3,327.8,113.7,323.5,113.7z M430.5,130.3c-4.3,0-7.7-3.5-7.7-7.7s3.5-7.7,7.7-7.7c4.3,0,7.7,3.5,7.7,7.7
	S434.7,130.3,430.5,130.3z M538.5,97.2c-4.3,0-7.7-3.5-7.7-7.7c0-4.3,3.5-7.7,7.7-7.7s7.7,3.5,7.7,7.7
	C546.2,93.7,542.7,97.2,538.5,97.2z M645.4,183.2c-4.3,0-7.7-3.5-7.7-7.7s3.5-7.7,7.7-7.7s7.7,3.5,7.7,7.7S649.7,183.2,645.4,183.2z
	"/>
</svg>
